<?xml version="1.0" standalone="no"?><!DOCTYPE svg PUBLIC "-//W3C//DTD SVG 1.1//EN" "http://www.w3.org/Graphics/SVG/1.1/DTD/svg11.dtd"><svg class="icon" width="128px" height="127.63px" viewBox="0 0 1027 1024" version="1.1" xmlns="http://www.w3.org/2000/svg"><path  d="M1007.104 402.432c-8.704-31.744-36.864-55.808-69.632-60.928L698.368 299.52 591.872 82.944c-12.8-29.696-45.056-50.688-78.336-50.688-32.768 0-63.488 19.456-78.336 49.664l-107.008 217.6-238.08 43.008c-33.792 4.608-60.416 27.648-71.68 61.44v0.512c-8.704 30.72 1.024 67.072 24.064 90.624L212.992 655.36l-45.056 232.96c-6.144 31.744 7.168 66.048 34.816 87.04 27.136 19.456 62.976 22.016 91.648 6.144L513.536 872.96l217.6 109.056c10.24 5.12 25.6 10.752 40.96 10.752 18.432 0 36.864-6.656 49.664-17.92 27.136-19.968 39.936-52.224 34.304-86.528l-43.008-232.96 172.032-161.792c24.064-24.064 32.256-58.88 22.016-91.136z m-224.768 232.96l-6.656 6.656 46.592 251.904c3.584 19.456-4.608 39.424-21.504 52.224l-0.512 0.512c-6.656 5.632-17.408 9.216-28.16 9.216-6.656 0-15.872-2.56-25.088-6.656l-232.96-116.224L279.04 949.76l-0.512 0.512c-16.896 9.216-38.4 7.68-53.76-3.584-16.384-11.776-24.576-32.256-20.992-51.712l46.592-241.664 3.072-9.728L66.56 468.992c-13.824-13.824-19.456-36.352-13.824-54.784 6.656-20.992 22.016-33.792 43.008-36.864l257.024-46.592L468.992 98.304c9.216-17.92 27.648-29.696 46.592-29.696 19.456 0 38.912 12.288 46.08 29.184l114.688 233.984 257.024 45.056h1.024c18.944 2.048 35.328 16.896 40.448 35.328v1.024c6.656 19.456 1.536 39.936-12.8 54.272L782.336 635.392z"  /></svg>