<svg t="1597219461045" class="icon" viewBox="0 0 1024 1024" version="1.1" xmlns="http://www.w3.org/2000/svg" p-id="3017" width="128" height="128"><path d="M488.521143 784.310857a34.596571 34.596571 0 0 0 49.005714 0l155.794286-155.940571a34.596571 34.596571 0 0 0-48.786286-48.859429L547.620571 676.425143v-577.828572a34.596571 34.596571 0 0 0-69.193142 0v577.828572L381.513143 579.510857a34.450286 34.450286 0 0 0-48.786286 0 34.669714 34.669714 0 0 0-0.146286 48.859429l155.940572 155.940571z m436.882286-143.945143a34.596571 34.596571 0 0 0-34.596572 34.669715V870.4a20.626286 20.626286 0 0 1-20.626286 20.626286H153.673143a20.626286 20.626286 0 0 1-20.553143-20.626286V674.889143a34.596571 34.596571 0 0 0-69.12 0v222.939428a62.171429 62.171429 0 0 0 62.098286 62.098286h771.803428a62.171429 62.171429 0 0 0 62.098286-62.171428V674.962286a34.596571 34.596571 0 0 0-34.596571-34.523429z"  p-id="3018"></path></svg>