<?xml version="1.0" standalone="no"?><!DOCTYPE svg PUBLIC "-//W3C//DTD SVG 1.1//EN" "http://www.w3.org/Graphics/SVG/1.1/DTD/svg11.dtd"><svg class="icon"  width="128px" height="128.00px" viewBox="0 0 1024 1024" version="1.1" xmlns="http://www.w3.org/2000/svg"><path  d="M211.08716784 855.99506583c-13.2560719-2.65121438-21.87251863-11.93046471-30.48896537-21.20971504-70.25718107-74.23400265-114.66502195-161.72407719-127.92109385-263.79583082-19.88410785-153.10763045 23.19812583-285.66834947 127.92109385-398.34496064 17.89569707-19.22130427 46.39625165-13.2560719 54.34989479 11.26766112 3.97682157 11.93046471 1.3256072 24.52373301-7.95364313 33.80298334-64.29194871 66.9431631-102.73455724 146.47959451-112.67661116 238.60929423-13.2560719 125.26987947 22.53532223 234.63247265 107.3741824 328.08777955 3.97682157 4.63962516 7.95364315 8.61644674 12.5932683 13.2560719 20.54691145 20.54691145 13.2560719 49.04746604-14.58167909 57.00110918-1.3256072 0.66280359-1.98841078 0.66280359-3.31401797 1.32560718h-5.30242877zM975.96251653 510.01158922c-2.65121438 120.6302543-48.38466243 233.30686546-141.17716574 326.09936876-9.27925033 9.27925033-18.55850066 15.90728628-31.81457256 13.9188755-13.2560719-1.98841078-22.53532223-9.27925033-25.8493402-21.87251863-3.97682157-11.93046471-0.66280359-25.84934021 8.61644674-34.46578695 27.83775099-27.17494739 52.361484-58.32671636 72.24559185-92.12969972 89.47848533-157.74725563 64.29194871-355.92553055-62.30353793-485.17223157-12.5932683-12.5932683-14.58167909-30.48896537-5.30242877-43.74503728 9.94205392-14.58167909 29.82616178-17.89569707 44.40784087-7.95364315 1.98841078 1.3256072 3.31401797 2.65121438 5.30242876 4.63962517 60.31512715 60.97793075 103.39736083 137.86314777 122.61866509 222.03920435 8.61644674 35.79139413 12.5932683 71.58278827 13.25607189 118.64184352z"  /><path  d="M805.62199262 504.04635685c-1.3256072 79.53643141-30.48896537 151.11921968-90.14128894 209.44593605-9.27925033 9.27925033-19.22130427 17.23289347-33.14017975 14.5816791-12.5932683-1.98841078-21.87251863-9.94205392-25.8493402-22.53532224-3.97682157-11.93046471-0.66280359-25.18653662 8.61644672-33.14017975 23.19812583-22.53532223 42.41943008-49.04746604 55.675502-78.21082423 38.44260851-86.16446736 19.88410785-189.56182818-45.73344807-256.50499128-13.9188755-14.58167909-14.58167909-34.46578693-1.32560719-47.72185885s33.14017975-12.5932683 47.05905526 1.98841078c56.33830558 57.66391277 84.17605657 127.25829025 84.83886017 212.09715042z m-589.89519961 0c0.66280359-80.19923501 28.50055458-149.79361248 83.51325297-208.12032885 9.94205392-10.60485751 21.20971504-14.58167909 35.12859055-9.27925031 21.87251863 7.95364315 28.50055458 36.45419773 11.93046471 53.6870912-89.47848533 93.4553069-88.81568174 237.28368703 1.32560719 330.07619033 9.94205392 9.94205392 18.55850066 19.88410785 16.57008987 35.12859054-1.98841078 12.5932683-8.61644674 21.87251863-20.54691145 26.51214381-11.26766112 4.63962516-23.86092942 1.98841078-32.47737615-6.62803597-62.30353794-60.97793075-94.1181105-134.54912979-95.44371769-221.37640075z m300.25002856-98.75773566c58.98951997 0 106.71137881 48.38466243 106.7113788 108.03698601s-47.72185885 108.03698599-106.7113788 108.03698598c-58.98951997 0-106.71137881-48.38466243-106.71137881-108.03698598v-1.3256072c0.66280359-58.98951997 48.38466243-106.71137881 106.71137881-106.71137881z"  /></svg>