<?xml version="1.0" standalone="no"?><!DOCTYPE svg PUBLIC "-//W3C//DTD SVG 1.1//EN" "http://www.w3.org/Graphics/SVG/1.1/DTD/svg11.dtd"><svg class="icon" width="128px" height="128.00px" viewBox="0 0 1024 1024" version="1.1" xmlns="http://www.w3.org/2000/svg"><path fill="#bfbfbf" d="M671.3 546.6l-2.1-42.6c27.9-1.4 82.2-78 82.2-148.6 0-82-64.8-148.2-144.6-148.2v-42.7c103.5 0 187.3 85.6 187.3 190.9 0 91.2-69.1 188.6-122.8 191.2zM960 864h-42.7c0-159.1-123-303.3-249.5-317.5l4.8-42.4C821.1 520.8 960 683.6 960 864zM417.7 504.2c81.1 0 147.1-67.4 147.1-150.8s-66-150.8-147.1-150.8S270.6 270 270.6 353.4s66 150.8 147.1 150.8z m0 42.6c-104.9 0-189.8-86.7-189.8-193.4S312.8 160 417.7 160s189.8 86.7 189.8 193.4-84.9 193.4-189.8 193.4zM770.4 864h-42.7c0-175.6-139.1-317.7-310.5-317.7S106.7 688.5 106.7 864H64c0-198.9 158-360.4 353.2-360.4S770.4 665.1 770.4 864z" /></svg>