<?xml version="1.0" standalone="no"?><!DOCTYPE svg PUBLIC "-//W3C//DTD SVG 1.1//EN" "http://www.w3.org/Graphics/SVG/1.1/DTD/svg11.dtd"><svg class="icon" width="128px" height="128.00px" viewBox="0 0 1024 1024" version="1.1" xmlns="http://www.w3.org/2000/svg"><path fill="#bfbfbf" d="M490.533 13.867c-0.666 0.666-6.133 1.333-32.533 3.333-15.6 1.2-27.867 3.067-42 6.267-4.8 1.066-9.867 1.866-11.2 1.866-1.467 0-5.867 0.934-10 2.134C390.667 28.533 384 30.4 380 31.6c-16.933 4.533-22.133 6.133-25.333 7.467-1.867 0.666-5.067 1.733-7.334 2.266-2.133 0.667-7.333 2.4-11.333 4s-8.8 3.334-10.667 3.867c-1.866 0.667-7.066 2.667-11.333 4.667-4.4 2-9.733 4.4-12 5.333-12.4 5.467-37.6 18.533-39.733 20.667-0.8 0.8-2.267 1.466-3.067 1.466-0.933 0-5.467 2.534-10.133 5.6-9.467 6.4-12.8 8.534-15.734 9.867-1.066 0.533-4.133 2.533-6.666 4.533-2.534 2-8.667 6.267-13.467 9.6-4.8 3.334-10 7.067-11.333 8.267-1.467 1.2-10.934 9.333-21.2 18-18.534 15.733-36 32.933-50 49.333-4 4.667-8.267 9.467-9.467 10.667-3.067 3.2-26.533 34.533-26.533 35.6 0 0.4-1.867 3.067-4 5.867-2.267 2.8-4 5.466-4 5.866 0 0.4-1.734 3.334-4 6.4-2.134 2.934-4 6.134-4 6.8 0 0.8-0.8 2.4-1.867 3.467-4.933 5.733-24.533 44.933-32.133 64.133-1.2 3.334-3.067 7.6-4.134 9.6-1.066 1.867-1.866 4.4-1.866 5.467 0 1.2-0.8 3.733-1.867 5.867-1.067 2-2.933 7.333-4.267 11.733-1.2 4.4-2.933 10.133-3.866 12.667C26 378.133 22.533 392 20 404.667c-0.8 4.4-2.133 9.733-2.8 12-0.8 2.133-1.733 8.133-2.133 13.333-0.4 5.067-1.334 10.4-2 11.733-0.667 1.334-1.867 10.934-2.667 21.334C7.2 505.6 7.067 513.6 8.267 533.333 8.8 540.267 9.6 552.267 10 560c0.533 7.733 1.733 17.333 2.8 21.333 1.067 4 1.867 9.467 1.867 12.134 0 2.533 0.933 7.733 2 11.333 1.066 3.6 2 8 2 9.733 0 1.734 0.8 6.267 1.866 10A581.424 581.424 0 0 1 24.667 640c1.2 4.8 2.8 10.4 3.466 12.667 0.8 2.133 1.867 5.733 2.534 8 1.733 6.133 5.066 15.6 14.133 39.6 1.2 3.2 2.667 6.666 3.333 7.733 0.667 1.067 1.6 2.933 2 4 2.534 6.8 12.667 27.6 18.534 38 2.533 4.4 5.2 9.2 6 10.667C76.267 764 76.933 764.933 89.2 784c9.467 14.667 24.267 35.2 27.467 38 0.8 0.667 3.6 4 6 7.333 6 7.867 12.133 14.534 31.466 33.867 14.4 14.533 19.467 19.067 36.4 33.6 7.067 6 31.867 24.533 32.934 24.533 0.4 0 3.066 1.867 5.866 4 2.8 2.267 5.334 4 5.734 4 0.4 0 4.533 2.534 9.2 5.734 9.466 6.266 11.066 7.2 22.8 13.466 19.066 10.267 41.333 20.8 56.933 26.8 3.333 1.2 7.333 2.8 9.067 3.467 16.533 6.4 52.133 16.8 70.266 20.533 5.867 1.2 14.534 3.067 19.334 4.134 4.8 1.066 11.2 1.866 14.266 1.866 3.067 0 9.6 0.8 14.667 1.867 4.933 0.933 10 1.867 11.067 1.867 22.933 0.4 101.733 0.133 102.533-0.4 1.6-0.934 8-2 16.8-2.667 6.4-0.667 15.6-2.267 38-6.8 11.2-2.267 23.333-5.467 46-12.267 10.533-3.066 26.267-8.933 31.6-11.733 1.867-1.067 4.4-1.867 5.467-1.867 1.2 0 3.733-0.8 5.866-1.866 2-1.067 8-3.867 13.067-6.267 5.2-2.267 10.267-4.8 11.333-5.333 1.067-0.667 2.934-1.6 4-2 1.067-0.4 2.934-1.334 4-2 1.067-0.667 2.934-1.6 4-2 1.067-0.4 2.934-1.334 4-2 1.067-0.667 2.934-1.6 4-2.134 1.067-0.533 5.067-2.666 8.667-4.8 3.733-2.133 8.533-4.933 10.667-6.133 12.4-6.933 46.666-31.067 59.466-42 23.467-20.133 40.8-36.8 55.734-53.467 4.533-5.2 9.6-10.8 11.333-12.666 7.733-8.667 43.467-58.4 43.467-60.667 0-0.533 11.066-19.867 13.333-23.333 0.8-1.067 1.733-2.934 2.133-4 0.4-1.067 1.334-2.934 2-4 0.667-1.067 1.6-2.934 2-4 0.4-1.067 1.334-2.934 2-4 0.667-1.067 1.6-2.934 2-4 1.334-3.467 8.667-19.2 10.667-23.067 1.067-2.133 1.867-4.667 1.867-5.733 0-1.2 0.666-3.334 1.6-4.934 2-3.6 4.8-10.8 6.4-16.266 1.066-3.867 2.4-7.6 6-18 1.733-4.534 4-13.334 7.866-29.067 1.067-4.133 2.534-10.267 3.334-13.6 0.933-3.333 2.133-10.4 2.8-15.733 0.666-5.334 1.6-10.4 2.133-11.2 0.533-0.8 1.467-7.334 2-14.267 0.533-7.067 1.6-16.667 2.4-21.467 1.733-11.466 1.733-68.8 0.133-80.666-0.8-5.2-1.866-14.8-2.533-21.334-1.333-13.2-3.333-25.2-6.267-36.933-1.066-4.267-1.866-9.067-1.866-10.667 0-1.733-0.8-5.733-1.867-9.066-1.067-3.334-2.933-9.867-4.267-14.667-2.4-8.933-9.866-32.8-12.266-38.667-0.667-1.866-2.4-6-3.6-9.333-6.8-17.6-18.667-42.8-28-59.333-2.534-4.4-5.2-9.2-6-10.667-0.8-1.467-2.534-4.533-4-6.667-1.467-2.266-3.067-4.933-3.6-6-0.4-1.066-2.534-4.133-4.667-6.8-2-2.666-3.733-5.333-3.733-5.733 0-1.067-27.734-38.133-30-40.133-0.8-0.8-3.867-4.267-6.8-8-7.467-9.467-37.867-39.867-51.2-51.2-6.267-5.334-12.8-11.067-14.667-12.667-1.867-1.6-5.067-4.133-7.333-5.467-2.134-1.466-5.067-3.6-6.4-4.933-2.667-2.667-38.8-26.8-46.267-30.933-2.533-1.467-7.067-4-10-5.6-5.867-3.334-30.933-15.734-37.6-18.667-2.4-1.067-6.533-2.8-9.067-3.867-2.533-1.066-6.8-2.933-9.333-4-2.533-1.066-6.667-2.8-9.067-3.733-5.866-2.533-12.8-4.933-17.6-6.267-2.133-0.533-5.466-1.6-7.333-2.266-4.4-1.867-14.667-4.934-25.333-7.734A581.43 581.43 0 0 1 627.2 27.2c-3.733-1.067-8.267-1.867-10.267-1.867-1.866 0-5.066-0.666-7.2-1.466-2-0.8-7.866-2-13.066-2.534-5.067-0.666-12.267-1.733-16-2.533-3.6-0.8-12-1.733-18.667-2.133-6.533-0.4-14.933-1.2-18.667-1.467-9.866-1.2-52-2.133-52.8-1.333zM534 79.467c3.733 0.266 12.4 0.8 19.333 1.2 6.934 0.533 15.734 1.466 19.334 2.266 3.733 0.8 10 1.867 14 2.4 12.933 1.734 24.533 4.4 44 9.867 15.733 4.533 22.266 6.667 25.6 8.267 1.866 1.066 4.666 1.866 6 1.866 1.466 0 3.733 0.934 5.2 2 1.333 1.067 3.6 2 4.8 2 1.2 0 3.866 0.8 6 1.867 2 1.067 6.4 3.067 9.733 4.533 17.733 7.734 40.8 19.867 52.667 27.734 9.6 6.266 12.666 8.133 15.333 9.333 2.4 1.2 33.467 24.533 35.333 26.533 0.8 0.8 4.267 3.867 8 6.8 9.467 7.467 32 30 43.2 43.2 5.334 6.267 10.934 12.8 12.667 14.667 5.867 6.8 11.467 14.4 11.467 15.867 0 0.8 0.533 1.466 1.2 1.466 0.8 0 2.133 1.467 3.066 3.2 0.934 1.867 4.667 7.734 8.267 13.067 3.733 5.333 8.133 12.4 10 15.733 5.2 9.734 6.8 12.4 9.467 16.667 1.466 2.133 3.066 4.933 3.466 6 0.4 1.067 1.067 2.533 1.334 3.333 0.266 0.667 1.066 2.267 1.733 3.334C907.067 326 914.133 341.6 916.667 348c1.2 3.333 3.066 7.733 4.133 10 4.667 10.4 15.6 47.867 19.733 67.333 4 19.867 5.067 26.267 6.267 40 0.667 7.734 1.467 17.334 1.867 21.334 1.2 11.333 1.333 41.066 0.266 50-0.533 4.4-1.466 14.933-2.133 23.466-0.667 8.534-1.467 16.267-2 17.067-0.533 0.8-1.467 5.467-2.133 10.533-2 15.2-6.934 35.334-14.534 58.267-4.266 12.933-5.733 17.067-7.866 22-1.067 2.533-2.8 6.8-3.867 9.333-4.267 10.134-5.733 13.334-13.867 29.734-4.666 9.466-9.2 17.733-10.133 18.533-0.933 0.8-1.733 2.133-1.733 3.2 0 0.933-2.667 5.6-6 10.4-3.334 4.933-6 9.067-6 9.467 0 0.8-10.934 16.266-13.734 19.466-0.933 1.067-5.466 6.8-9.866 12.667-4.534 5.733-9.6 12-11.334 13.867-1.733 1.866-6.933 7.466-11.6 12.666C821.2 819.467 798 840.8 785.333 850.4c-5.466 4.133-10.8 8.267-12 9.333-2.933 2.534-18.533 13.6-19.2 13.6-0.4 0-4.4 2.534-9.066 5.6-4.667 3.2-9.6 6.4-11.067 7.2-1.467 0.667-7.333 4-13.067 7.067-17.2 9.333-32.666 16.533-47.6 22.133-3.333 1.2-7.733 3.067-9.733 4.134-2.133 1.066-4.667 1.866-5.6 1.866-1.067 0-3.867 0.8-6.267 1.867-9.066 3.867-37.466 11.467-57.733 15.467-23.733 4.8-36.533 5.733-81.333 5.866-24.934 0.134-48-0.4-51.334-0.933C458 943.067 451.2 942 446 941.333c-9.2-1.066-18.4-2.8-30-5.6-3.333-0.8-8.4-1.866-11.333-2.533-2.934-0.533-9.467-2.267-14.667-3.867-5.067-1.466-11.067-3.333-13.333-4-6.267-1.866-23.6-8-28.267-10.133-2.4-0.933-6.4-2.667-8.667-3.6-5.333-2.267-22.266-10.133-25.066-11.6-1.067-0.667-6.534-3.467-12-6.267-5.467-2.8-12.534-6.666-15.467-8.8-3.067-2-5.867-3.6-6.267-3.6-0.933 0-17.6-11.333-23.733-16.133-2.667-2.133-5.467-3.867-6-3.867-0.667 0-3.333-1.866-5.867-4.133-2.533-2.133-8.266-6.8-12.666-10.133-15.734-12.4-43.6-40-59.2-58.8-7.734-9.334-26.8-34.534-26.8-35.467 0-0.267-2.534-4.4-5.6-9.067C134.4 734 132.933 731.467 130.133 726c-1.066-2.267-3.866-7.067-6-10.667-2.266-3.733-4.533-7.6-4.933-8.666-0.4-1.067-2.667-5.867-4.8-10.667s-4.8-10.8-6-13.333c-1.067-2.534-2.933-6.267-3.867-8.267-1.066-1.867-1.866-4.667-1.866-6 0-1.333-0.534-3.067-1.2-3.733-2.534-2.667-16.4-48-18.267-60-0.4-2.267-1.467-7.867-2.533-12.667-4.4-20.8-7.467-53.733-7.2-80.667 0.133-22.133 1.466-44.266 3.2-53.333 0.4-2.267 1.333-8.533 2-14 0.533-5.467 1.733-11.733 2.533-13.733 0.8-2.134 1.467-5.334 1.467-7.2 0-2 0.933-6.8 2.133-10.934 5.467-19.466 6.267-22.533 8.133-28.8 1.067-3.733 2.8-8.4 3.867-10.4 1.067-2.133 1.867-4.666 1.867-5.6 0-1.066 0.933-4.133 2.133-6.933 2.133-4.8 3.2-7.2 7.733-18.133C111.2 335.6 127.867 302.533 130.8 298c1.333-2.267 3.067-5.2 3.867-6.667 12.533-23.6 55.733-76.666 77.466-95.333 4.667-4 10.4-8.933 12.534-11.067 4.666-4.533 40.133-31.6 41.466-31.6 0.4 0 3.067-1.6 5.734-3.733 6.133-4.667 9.333-6.533 13.466-8.4 1.867-0.8 5.2-2.8 7.6-4.667 2.267-1.733 5.067-3.2 6.267-3.2 1.067 0 2.267-0.533 2.667-1.066C302.533 131.2 318.8 122.8 324 120.8c1.067-0.4 2.933-1.333 4-1.867 1.067-0.666 4.133-2.133 6.667-3.2 2.533-1.066 6.8-2.933 9.333-4 18-7.866 47.467-17.066 76.667-23.733 3.733-0.8 11.2-2.133 16.666-2.8 5.467-0.667 11.2-1.733 12.667-2.4 1.467-0.533 8-1.2 14.533-1.333 6.534-0.134 12.534-0.667 13.334-1.067 0.8-0.533 5.333-0.8 10.133-0.667 4.8 0.134 9.6-0.4 10.667-1.2 1.866-1.2 10.8-1.066 35.333 0.934zM718.667 180.933c-2.534 0.134-10.934 1.2-18.667 2.4-7.733 1.067-21.467 2.934-30.667 4-9.2 1.2-22.933 2.934-30.666 4-17.734 2.4-40 5.2-61.334 8-9.2 1.2-22.933 2.934-30.666 4-7.734 1.067-21.467 2.8-30.667 4-9.2 1.2-22.933 2.934-30.667 4-7.733 1.067-21.466 2.8-30.666 4-18.534 2.4-39.067 5.067-55.334 7.334-6 0.8-15.733 2-21.866 2.666-6.134 0.667-11.867 2-12.934 2.8-1.6 1.334-1.866 32.667-1.866 203.334 0 126.8-0.534 202-1.334 202.533-0.666 0.4-3.466-0.267-6.266-1.467C325.467 620 276.8 617.6 251.333 627.6c-27.066 10.533-44.8 28.667-54.4 55.6-3.866 11.067-4.133 37.733-0.533 48.8 11.2 33.867 36.8 53.333 76.8 58.533 36.267 4.667 68.4-4.266 90.933-25.466 6.8-6.267 16.267-18.534 18.4-23.734 0.8-1.866 2-4.266 2.534-5.333 4.266-7.467 7.066-14.533 10.533-26.667 6.267-22.4 6.133-16.266 6.933-187.333l0.8-161.333 10-1.467c5.467-0.933 17.467-2.533 26.667-3.867 9.2-1.2 22.667-3.066 30-4 7.333-1.066 20.533-2.8 29.333-4 8.8-1.2 22-2.933 29.334-4 7.333-1.066 20.8-2.8 30-4 9.2-1.2 22.666-2.933 30-4C615.2 331.6 631.6 329.467 648 327.2c9.2-1.2 21.2-2.933 26.667-3.867 5.466-0.933 10.4-1.333 10.933-0.8 1.2 1.067 1.467 278.8 0.4 280-0.4 0.4-3.333-0.533-6.4-2.133-9.733-4.8-13.2-5.867-28.267-8.533-50.666-8.667-91.333 3.2-114.8 33.6-21.466 28-23.466 62.8-5.466 93.866 7.333 12.534 12.8 18.667 24.266 27.334 17.2 12.933 32.667 17.6 59.334 17.6 35.466 0.133 60.133-8.667 78.933-27.867 16.667-17.067 24.267-32.933 30.4-63.467 2.533-12.666 2.667-19.6 2.667-251.733 0-131.333-0.267-239.333-0.667-240-0.533-0.667-1.2-1.067-1.733-0.933-0.534 0-3.067 0.4-5.6 0.666z" /></svg>