<?xml version="1.0" standalone="no"?><!DOCTYPE svg PUBLIC "-//W3C//DTD SVG 1.1//EN" "http://www.w3.org/Graphics/SVG/1.1/DTD/svg11.dtd"><svg class="icon" width="128px" height="128.00px" viewBox="0 0 1024 1024" version="1.1" xmlns="http://www.w3.org/2000/svg"><path fill="#bfbfbf" d="M512.15017 0a511.992511 511.992511 0 1 0 511.849854 511.992511A512.563135 512.563135 0 0 0 512.15017 0z m0 943.669673a431.819819 431.819819 0 1 1 431.677162-431.677162 432.247787 432.247787 0 0 1-431.677162 431.677162z"  /><path fill="#bfbfbf" d="M712.296587 517.841408L551.237923 678.472104v-427.968106a39.515722 39.515722 0 1 0-78.888787 0v427.968106L311.861096 517.841408a39.373066 39.373066 0 1 0-55.77851 55.77851l228.249657 228.249656a28.531207 28.531207 0 0 0 8.702018 6.276866 22.539654 22.539654 0 0 0 3.709057 1.854528 21.683717 21.683717 0 0 0 3.994369 1.283905 16.976068 16.976068 0 0 0 3.281089 0.998592 36.662601 36.662601 0 0 0 7.846082 0.855936 35.378697 35.378697 0 0 0 7.703426-0.855936 20.114501 20.114501 0 0 0 3.138432-0.855936l4.279681-1.426561 3.423745-1.711872c1.141248 0 2.282497-1.141248 3.281089-1.854529a50.072268 50.072268 0 0 0 5.135617-4.137025l0.855937-0.71328 228.249656-228.249656a39.515722 39.515722 0 0 0-55.77851-55.921166z"  /></svg>